<?xml version="1.0" encoding="UTF-8"?>
<svg id="Ebene_1" xmlns="http://www.w3.org/2000/svg" version="1.1" viewBox="0 0 539.9 87">
  <!-- Generator: Adobe Illustrator 29.7.1, SVG Export Plug-In . SVG Version: 2.1.1 Build 8)  -->
  <defs>
    <style>
      .st0 {
        fill: #3a6686;
      }

      .st1 {
        fill: #575756;
      }

      .st2 {
        fill: #008b6b;
      }

      .st3 {
        fill: #646362;
      }
    </style>
  </defs>
  <g>
    <path class="st3" d="M50.7,1.2C27.4-.6,7,17.1,5.1,40.6c-.4,4.9,0,9.7,1.2,14.2l1.2-.7c-.9-3.9-1.2-8.1-.9-12.3C8.5,18.9,28.6,2.5,51.2,4.3c15.3,1.2,27.8,10.3,33.7,23.1l1.5.4C80.6,13.3,67.1,2.5,50.7,1.2"/>
    <path class="st2" d="M57.3,25.9c12.4-3.4,22.1,0,23.8.2-10.6-8.8-21.3-11-32.6-6.7-9.4,3.5-16.3,13.2-31.1,30.7,20.6-13.3,26.8-20.7,39.9-24.2"/>
    <path class="st2" d="M57.5,28.4c-11.6,2.8-26.1,14.5-36.3,20.7,11.1-3.2,18.7-2.9,33.8-.4,23.5,3.3,34-13.7,35.5-17.3-2.5-1.1-17.5-6.6-33-3"/>
    <path class="st0" d="M89.4,38.2s-10.3,17.7-39,11.8C18.8,43.5,2.8,59,2.8,59c0,0,42-11.8,58.1,24.7,17.5-5.7,30.9-24.3,28.4-45.4"/>
    <path class="st3" d="M8.1,59.4s15.5-2.6,27.7,2.4c16.2,5.9,22.5,22.7,22.6,22.7-21.9,5.5-42.6-5.9-50.3-25"/>
  </g>
  <g>
    <g>
      <path class="st1" d="M134.5,34.2c.5,1.6,1,3.2,1.5,4.9s1.1,3.4,1.6,5.1c.6,1.7,1.1,3.4,1.7,5,.6,1.6,1.1,3.2,1.6,4.7.4-1.6.9-3.3,1.3-5.1s.8-3.8,1.2-5.8c.4-2,.8-4,1.2-6.1s.8-4.1,1.1-6.1h5.7c-1,5.5-2.2,10.7-3.4,15.8-1.2,5.1-2.7,9.9-4.2,14.5h-5.3c-2.3-5.9-4.4-12.3-6.6-19.3-1.1,3.5-2.2,6.9-3.3,10.1s-2.2,6.3-3.3,9.2h-5.3c-1.6-4.6-3-9.4-4.2-14.5s-2.4-10.3-3.4-15.8h5.9c.3,2,.7,4,1.1,6.1.4,2.1.8,4.1,1.2,6.1.4,2,.9,3.9,1.3,5.8.4,1.9.9,3.6,1.3,5.2.6-1.5,1.1-3.1,1.7-4.7s1.1-3.3,1.7-5,1.1-3.4,1.6-5.1c.5-1.7,1-3.3,1.4-4.9h4.7Z"/>
      <path class="st1" d="M160.5,61h-5.3v-22.9h5.3v22.9ZM161.1,31.5c0,1-.3,1.8-1,2.4s-1.4.9-2.3.9-1.7-.3-2.3-.9-1-1.4-1-2.4.3-1.8,1-2.4,1.4-.9,2.3-.9,1.6.3,2.3.9c.6.6,1,1.4,1,2.4"/>
      <path class="st1" d="M179.1,42.9c-.4-.1-1-.3-1.8-.5s-1.7-.2-2.7-.2-1.2,0-1.9.2-1.1.2-1.4.3v18.3h-5.3v-21.8c1-.4,2.3-.7,3.8-1.1,1.5-.3,3.2-.5,5.1-.5s.8,0,1.2,0c.5,0,.9,0,1.4.2.5,0,.9.2,1.4.3s.8.2,1,.3l-.9,4.4Z"/>
      <path class="st1" d="M182.8,32.1l5.3-.9v6.9h8.1v4.4h-8.1v9.3c0,1.8.3,3.1.9,3.9.6.8,1.6,1.2,3,1.2s1.8,0,2.6-.3c.7-.2,1.3-.4,1.8-.6l.9,4.2c-.6.3-1.4.5-2.4.8s-2.2.4-3.5.4-3-.2-4.1-.7-2-1.1-2.6-1.9c-.6-.8-1.1-1.8-1.4-3-.3-1.2-.4-2.5-.4-4v-19.8h0Z"/>
      <path class="st1" d="M200.3,61V28l5.3-.9v11.3c.6-.2,1.3-.4,2-.5.8-.1,1.5-.2,2.3-.2,1.8,0,3.4.3,4.6.8,1.2.5,2.2,1.2,2.9,2.1.7.9,1.2,2,1.6,3.3.3,1.3.5,2.7.5,4.3v12.9h-5.3v-12c0-1.2,0-2.3-.2-3.1s-.4-1.6-.8-2.1c-.4-.5-.9-.9-1.5-1.2s-1.4-.4-2.3-.4-1.4,0-2.1.2-1.3.3-1.6.4v18.2s-5.3,0-5.3,0Z"/>
      <path class="st1" d="M247.3,37c0-.9-.3-1.6-.8-2.2-.6-.6-1.4-.9-2.4-.9s-1.9.3-2.5,1-.9,1.5-.9,2.5.2,1.7.7,2.5,1.1,1.6,1.9,2.4c.6-.3,1.1-.6,1.6-1,.5-.3.9-.7,1.3-1.2s.7-.9.9-1.4.3-1.1.3-1.8M237.8,52.6c0,.5,0,1,.3,1.5.2.5.5,1,.9,1.5s1,.8,1.7,1.1c.7.3,1.5.4,2.5.4s2.5-.2,3.6-.6c1.1-.4,2-1,2.7-1.8l-7.7-7.8c-.4.2-.9.5-1.4.8s-.9.7-1.3,1.2-.7,1-.9,1.6c-.2.6-.4,1.3-.4,2.1M232.7,53c0-1.1.2-2.1.5-3s.8-1.7,1.4-2.5c.6-.7,1.2-1.4,2-1.9.7-.6,1.5-1,2.3-1.5-.9-.9-1.6-1.9-2.1-3-.5-1-.8-2.2-.8-3.3,0-2.4.8-4.4,2.3-5.7s3.5-2.1,5.9-2.1,2.4.2,3.3.5,1.8.8,2.4,1.4c.6.6,1.1,1.3,1.5,2.2s.5,1.7.5,2.6-.1,1.8-.5,2.6c-.3.8-.7,1.6-1.2,2.3-.5.7-1.1,1.3-1.8,1.9-.7.6-1.4,1.1-2.2,1.5l6,6c.4-.8.7-1.6,1-2.6s.5-1.9.6-2.8l4.4.6c-.1,1.2-.5,2.5-.9,3.9s-1.1,2.8-1.8,4c1,1.1,1.9,2.2,2.8,3.3.9,1.1,1.6,2.3,2.2,3.4h-5.5c-.3-.5-.7-1-1.1-1.6s-.9-1.1-1.4-1.6c-1.2,1.1-2.6,1.9-4.1,2.6s-3.3,1-5.2,1-3.6-.3-4.9-.8c-1.3-.5-2.4-1.2-3.2-2-.8-.8-1.4-1.7-1.7-2.7-.3-1-.5-2-.5-2.9"/>
      <path class="st1" d="M292.2,34.2c.5,1.6,1,3.2,1.5,4.9s1.1,3.4,1.6,5.1c.6,1.7,1.1,3.4,1.7,5,.6,1.6,1.1,3.2,1.6,4.7.4-1.6.9-3.3,1.3-5.1s.8-3.8,1.2-5.8c.4-2,.8-4,1.2-6.1s.8-4.1,1.1-6.1h5.7c-1,5.5-2.2,10.7-3.4,15.8s-2.7,9.9-4.2,14.5h-5.3c-2.3-5.9-4.4-12.3-6.6-19.3-1.1,3.5-2.2,6.9-3.3,10.1s-2.2,6.3-3.3,9.2h-5.3c-1.6-4.6-3-9.4-4.2-14.5s-2.4-10.3-3.4-15.8h5.9c.3,2,.7,4,1.1,6.1s.8,4.1,1.2,6.1c.4,2,.9,3.9,1.3,5.8.4,1.9.9,3.6,1.3,5.2.6-1.5,1.1-3.1,1.7-4.7s1.1-3.3,1.7-5,1.1-3.4,1.6-5.1c.5-1.7,1-3.3,1.4-4.9h4.7Z"/>
      <path class="st1" d="M318.2,61h-5.3v-22.9h5.3v22.9ZM318.8,31.5c0,1-.3,1.8-1,2.4s-1.4.9-2.3.9-1.7-.3-2.3-.9-1-1.4-1-2.4.3-1.8,1-2.4,1.4-.9,2.3-.9,1.6.3,2.3.9c.6.6,1,1.4,1,2.4"/>
      <path class="st1" d="M337.8,47.4c0-.7,0-1.4-.3-2.1-.2-.7-.5-1.2-.9-1.7-.4-.5-.9-.9-1.4-1.1-.6-.3-1.2-.4-2-.4s-1.5.2-2.1.5-1.1.7-1.6,1.2c-.4.5-.8,1.1-1,1.7-.2.6-.4,1.3-.5,2h9.8ZM322.5,49.7c0-2,.3-3.8.9-5.3.6-1.5,1.4-2.8,2.4-3.8,1-1,2.1-1.8,3.4-2.3,1.3-.5,2.6-.8,3.9-.8,3.1,0,5.6,1,7.4,2.9,1.8,1.9,2.6,4.9,2.6,8.7s0,.6,0,1c0,.4,0,.7,0,1h-15.1c.1,1.8.8,3.3,1.9,4.3,1.1,1,2.8,1.5,5,1.5s2.5-.1,3.5-.3c1.1-.2,1.9-.5,2.5-.7l.7,4.3c-.3.1-.7.3-1.2.5s-1.1.3-1.8.4-1.4.2-2.1.3c-.8,0-1.5.1-2.3.1-2,0-3.8-.3-5.2-.9-1.5-.6-2.7-1.4-3.7-2.5s-1.7-2.3-2.1-3.8c-.5-1.4-.7-3-.7-4.7"/>
      <path class="st1" d="M347.5,38.9c1-.3,2.3-.6,4-.8,1.6-.3,3.4-.4,5.4-.4s3.4.3,4.7.8c1.3.5,2.2,1.2,3,2.1.7.9,1.3,2,1.6,3.3s.5,2.7.5,4.3v12.9h-5.3v-12c0-1.2,0-2.3-.2-3.1s-.4-1.6-.8-2.1c-.4-.5-.9-.9-1.5-1.2s-1.4-.4-2.3-.4-1.4,0-2.1.1c-.7,0-1.3.2-1.6.2v18.5h-5.3v-22.1h0Z"/>
      <path class="st1" d="M386,47.4c0-.7,0-1.4-.3-2.1-.2-.7-.5-1.2-.9-1.7-.4-.5-.9-.9-1.4-1.1-.6-.3-1.2-.4-2-.4s-1.5.2-2.1.5-1.1.7-1.6,1.2c-.4.5-.8,1.1-1,1.7s-.4,1.3-.5,2h9.8ZM370.6,49.7c0-2,.3-3.8.9-5.3.6-1.5,1.4-2.8,2.4-3.8,1-1,2.1-1.8,3.4-2.3,1.3-.5,2.6-.8,3.9-.8,3.1,0,5.6,1,7.4,2.9,1.8,1.9,2.6,4.9,2.6,8.7s0,.6,0,1c0,.4,0,.7,0,1h-15.1c.1,1.8.8,3.3,1.9,4.3,1.1,1,2.8,1.5,5,1.5s2.5-.1,3.5-.3c1.1-.2,1.9-.5,2.5-.7l.7,4.3c-.3.1-.7.3-1.2.5-.5.2-1.1.3-1.8.4s-1.4.2-2.1.3c-.8,0-1.5.1-2.3.1-2,0-3.8-.3-5.2-.9-1.5-.6-2.7-1.4-3.7-2.5s-1.7-2.3-2.1-3.8c-.5-1.4-.7-3-.7-4.7"/>
      <path class="st1" d="M408.7,42.9c-.4-.1-1-.3-1.8-.5s-1.7-.2-2.7-.2-1.2,0-1.9.2-1.1.2-1.4.3v18.3h-5.3v-21.8c1-.4,2.3-.7,3.8-1.1,1.5-.3,3.2-.5,5.1-.5s.8,0,1.2,0c.5,0,.9,0,1.4.2s.9.2,1.4.3.8.2,1,.3l-.9,4.4Z"/>
      <path class="st1" d="M436.1,34.9c-3.1,0-5.5,1-7.1,2.9s-2.5,4.6-2.5,8.1.2,3.1.6,4.5,1,2.5,1.8,3.5c.8,1,1.7,1.7,2.9,2.2,1.1.5,2.5.8,4,.8s1.8,0,2.5-.1,1.2-.2,1.7-.3v-10.9h5.5v14.6c-.8.3-2,.6-3.8,1-1.8.3-3.9.5-6.3.5s-4.2-.3-6-1c-1.8-.7-3.3-1.7-4.6-3.1s-2.3-3-2.9-4.9c-.7-1.9-1-4.2-1-6.7s.4-4.8,1.2-6.7,1.8-3.6,3.2-5,2.9-2.4,4.7-3.1c1.8-.7,3.7-1,5.8-1s2.6,0,3.7.3c1.1.2,2,.4,2.8.6s1.4.5,1.9.7c.5.3.9.5,1.1.6l-1.7,4.5c-.9-.5-2-1-3.3-1.3-1.3-.4-2.7-.6-4.1-.6"/>
      <path class="st1" d="M463.9,49c0-2.4-.3-4.1-.9-5.2-.6-1.1-1.7-1.6-3.3-1.6s-1.2,0-1.9.1c-.7,0-1.2.2-1.6.2v18.5h-5.3v-22.1c1-.3,2.4-.6,4-.8,1.6-.3,3.4-.4,5.2-.4s2.9.2,3.9.6,1.8.9,2.5,1.6c.3-.2.7-.5,1.2-.7.5-.3,1-.5,1.7-.7s1.3-.4,1.9-.5c.7-.1,1.4-.2,2.1-.2,1.8,0,3.2.3,4.4.8,1.1.5,2.1,1.2,2.7,2.1s1.1,2,1.4,3.3.4,2.7.4,4.3v12.9h-5.3v-12c0-2.4-.3-4.1-.9-5.2-.6-1.1-1.7-1.6-3.4-1.6s-1.7.1-2.4.4c-.8.3-1.3.5-1.7.8.2.7.4,1.5.5,2.3s.1,1.7.1,2.6v12.6h-5.3v-12h0Z"/>
      <path class="st1" d="M502.7,49.6c0-2.2-.4-4-1.3-5.3s-2.3-2-4.2-2-1.7.1-2.5.4-1.4.6-1.9.9v13.2c.4,0,.9.2,1.5.2.6,0,1.3.1,2.2.1,1.9,0,3.5-.7,4.6-2,1.1-1.3,1.7-3.2,1.7-5.5M508.1,49.6c0,1.8-.3,3.5-.8,5-.5,1.5-1.3,2.7-2.3,3.8-1,1-2.2,1.9-3.7,2.4s-3,.8-4.8.8-3.4-.1-5-.4c-1.6-.3-2.9-.6-4-.9V28l5.3-.9v11.9c.6-.3,1.4-.6,2.2-.9.9-.3,1.9-.4,2.9-.4,1.6,0,3,.3,4.3.9s2.3,1.4,3.2,2.4,1.5,2.3,1.9,3.8c.5,1.5.7,3.1.7,4.9"/>
    </g>
    <polygon class="st1" points="531.5 30.7 537.1 30.7 537.1 61 531.5 61 531.5 47.6 518.4 47.6 518.4 61 512.9 61 512.9 30.7 518.4 30.7 518.4 42.9 531.5 42.9 531.5 30.7"/>
  </g>
</svg>